<?xml version="1.0" encoding="ISO-8859-1"?>

<!DOCTYPE svg PUBLIC '-//W3C//DTD SVG 1.0//EN' 'http://www.w3.org/TR/2001/REC-SVG-20010904/DTD/svg10.dtd'>
<svg height="79" style="color-interpolation:auto; color-rendering:auto; fill:black; fill-opacity:1; font-family:&apos;Dialog&apos;; font-size:12; font-style:normal; font-weight:normal; image-rendering:auto; shape-rendering:auto; stroke:black; stroke-dasharray:none; stroke-dashoffset:0; stroke-linecap:square; stroke-linejoin:miter; stroke-miterlimit:10; stroke-opacity:1; stroke-width:1; text-rendering:auto;" width="191" xmlns="http://www.w3.org/2000/svg" xmlns:xlink="http://www.w3.org/1999/xlink">
  <!--Generated by the Batik Graphics2D SVG Generator-->
  <defs id="genericDefs" />
  <g>
    <g style="fill:white; font-family:serif; stroke:white;">
      <rect height="99" style="stroke:none;" width="234" x="0" y="0" />
      <text style="fill:black; font-size:14; stroke:none;" x="30" xml:space="preserve" y="10">MathLoadFuncs</text>
      <line style="fill:none; stroke:black;" x1="34" x2="50" y1="57" y2="57" />
      <path d="M56 45 A6 6 0 0 0 50 51" style="fill:none; stroke:black;" />
      <path d="M50 63 A6 6 0 0 0 56 69" style="fill:none; stroke:black;" />
      <path d="M170 51 A6 6 0 0 0 164 45" style="fill:none; stroke:black;" />
      <path d="M164 69 A6 6 0 0 0 170 63" style="fill:none; stroke:black;" />
      <text style="fill:black; stroke:none;" x="46" xml:space="preserve" y="59">MathLoadFuncs()</text>
      <line style="fill:none; stroke:black;" x1="55" x2="165" y1="45" y2="45" />
      <line style="fill:none; stroke:black;" x1="55" x2="165" y1="69" y2="69" />
      <line style="fill:none; stroke:black;" x1="50" x2="50" y1="64" y2="50" />
      <line style="fill:none; stroke:black;" x1="170" x2="170" y1="64" y2="50" />
      <line style="fill:none; stroke:black;" x1="50" x2="50" y1="57" y2="57" />
      <polygon points=" 50 57 44 54 44 60" style="fill:black; stroke:none;" />
      <line style="fill:none; stroke:black;" x1="170" x2="178" y1="57" y2="57" />
      <line style="fill:none; stroke:black;" x1="181" x2="181" y1="57" y2="57" />
      <polygon points=" 181 57 175 54 175 60" style="fill:black; stroke:none;" />
    </g>
  </g>
</svg>
