<?xml version="1.0" encoding="ISO-8859-1"?>

<!DOCTYPE svg PUBLIC '-//W3C//DTD SVG 1.0//EN' 'http://www.w3.org/TR/2001/REC-SVG-20010904/DTD/svg10.dtd'>
<svg height="84" style="color-interpolation:auto; color-rendering:auto; fill:black; fill-opacity:1; font-family:&apos;Dialog&apos;; font-size:12; font-style:normal; font-weight:normal; image-rendering:auto; shape-rendering:auto; stroke:black; stroke-dasharray:none; stroke-dashoffset:0; stroke-linecap:square; stroke-linejoin:miter; stroke-miterlimit:10; stroke-opacity:1; stroke-width:1; text-rendering:auto;" width="399" xmlns="http://www.w3.org/2000/svg" xmlns:xlink="http://www.w3.org/1999/xlink">
  <!--Generated by the Batik Graphics2D SVG Generator-->
  <defs id="genericDefs" />
  <g>
    <g style="fill:white; font-family:serif; stroke:white;">
      <rect height="104" style="stroke:none;" width="442" x="0" y="0" />
      <text style="fill:black; font-size:14; stroke:none;" x="30" xml:space="preserve" y="10">RxCalcSqrt</text>
      <line style="fill:none; stroke:black;" x1="34" x2="50" y1="57" y2="57" />
      <path d="M56 45 A6 6 0 0 0 50 51" style="fill:none; stroke:black;" />
      <path d="M50 63 A6 6 0 0 0 56 69" style="fill:none; stroke:black;" />
      <path d="M134 51 A6 6 0 0 0 128 45" style="fill:none; stroke:black;" />
      <path d="M128 69 A6 6 0 0 0 134 63" style="fill:none; stroke:black;" />
      <text style="fill:black; stroke:none;" x="46" xml:space="preserve" y="59">RxCalcSqrt(</text>
      <line style="fill:none; stroke:black;" x1="55" x2="129" y1="45" y2="45" />
      <line style="fill:none; stroke:black;" x1="55" x2="129" y1="69" y2="69" />
      <line style="fill:none; stroke:black;" x1="50" x2="50" y1="64" y2="50" />
      <line style="fill:none; stroke:black;" x1="134" x2="134" y1="64" y2="50" />
      <line style="fill:none; stroke:black;" x1="50" x2="50" y1="57" y2="57" />
      <polygon points=" 50 57 44 54 44 60" style="fill:black; stroke:none;" />
      <line style="fill:none; stroke:black;" x1="134" x2="150" y1="57" y2="57" />
      <polygon points=" 150 57 144 54 144 60" style="fill:black; stroke:none;" />
      <rect height="24" style="fill:none; stroke:black;" width="53" x="150" y="45" />
      <text style="fill:black; stroke:none;" x="152" xml:space="preserve" y="65">number</text>
      <line style="fill:none; stroke:black;" x1="150" x2="150" y1="57" y2="57" />
      <polygon points=" 150 57 144 54 144 60" style="fill:black; stroke:none;" />
      <line style="fill:none; stroke:black;" x1="203" x2="235" y1="57" y2="57" />
      <line style="fill:none; stroke:black;" x1="362" x2="330" y1="57" y2="57" />
      <path d="M219 65 A8 8 0 0 0 211 57" style="fill:none; stroke:black;" />
      <path d="M219 66 A8 8 0 0 0 227 74" style="fill:none; stroke:black;" />
      <path d="M354 57 A8 8 0 0 0 346 65" style="fill:none; stroke:black;" />
      <path d="M338 74 A8 8 0 0 0 346 66" style="fill:none; stroke:black;" />
      <line style="fill:none; stroke:black;" x1="219" x2="219" y1="65" y2="67" />
      <line style="fill:none; stroke:black;" x1="346" x2="346" y1="65" y2="67" />
      <line style="fill:none; stroke:black;" x1="227" x2="339" y1="74" y2="74" />
      <path d="M241 45 A6 6 0 0 0 235 51" style="fill:none; stroke:black;" />
      <path d="M235 63 A6 6 0 0 0 241 69" style="fill:none; stroke:black;" />
      <path d="M251 51 A6 6 0 0 0 245 45" style="fill:none; stroke:black;" />
      <path d="M245 69 A6 6 0 0 0 251 63" style="fill:none; stroke:black;" />
      <text style="fill:black; stroke:none;" x="236" xml:space="preserve" y="59">,</text>
      <line style="fill:none; stroke:black;" x1="240" x2="246" y1="45" y2="45" />
      <line style="fill:none; stroke:black;" x1="240" x2="246" y1="69" y2="69" />
      <line style="fill:none; stroke:black;" x1="235" x2="235" y1="64" y2="50" />
      <line style="fill:none; stroke:black;" x1="251" x2="251" y1="64" y2="50" />
      <line style="fill:none; stroke:black;" x1="235" x2="235" y1="57" y2="57" />
      <polygon points=" 235 57 229 54 229 60" style="fill:black; stroke:none;" />
      <line style="fill:none; stroke:black;" x1="251" x2="267" y1="57" y2="57" />
      <polygon points=" 267 57 261 54 261 60" style="fill:black; stroke:none;" />
      <rect height="24" style="fill:none; stroke:black;" width="63" x="267" y="45" />
      <text style="fill:black; stroke:none;" x="269" xml:space="preserve" y="65">precision</text>
      <line style="fill:none; stroke:black;" x1="267" x2="267" y1="57" y2="57" />
      <polygon points=" 267 57 261 54 261 60" style="fill:black; stroke:none;" />
      <path d="M368 45 A6 6 0 0 0 362 51" style="fill:none; stroke:black;" />
      <path d="M362 63 A6 6 0 0 0 368 69" style="fill:none; stroke:black;" />
      <path d="M378 51 A6 6 0 0 0 372 45" style="fill:none; stroke:black;" />
      <path d="M372 69 A6 6 0 0 0 378 63" style="fill:none; stroke:black;" />
      <text style="fill:black; stroke:none;" x="362" xml:space="preserve" y="59">)</text>
      <line style="fill:none; stroke:black;" x1="367" x2="373" y1="45" y2="45" />
      <line style="fill:none; stroke:black;" x1="367" x2="373" y1="69" y2="69" />
      <line style="fill:none; stroke:black;" x1="362" x2="362" y1="64" y2="50" />
      <line style="fill:none; stroke:black;" x1="378" x2="378" y1="64" y2="50" />
      <line style="fill:none; stroke:black;" x1="362" x2="362" y1="57" y2="57" />
      <polygon points=" 362 57 356 54 356 60" style="fill:black; stroke:none;" />
      <line style="fill:none; stroke:black;" x1="378" x2="386" y1="57" y2="57" />
      <line style="fill:none; stroke:black;" x1="389" x2="389" y1="57" y2="57" />
      <polygon points=" 389 57 383 54 383 60" style="fill:black; stroke:none;" />
    </g>
  </g>
</svg>
