<?xml version="1.0" encoding="ISO-8859-1"?>

<!DOCTYPE svg PUBLIC '-//W3C//DTD SVG 1.0//EN' 'http://www.w3.org/TR/2001/REC-SVG-20010904/DTD/svg10.dtd'>
<svg height="96" style="color-interpolation:auto; color-rendering:auto; fill:black; fill-opacity:1; font-family:&apos;Dialog&apos;; font-size:12; font-style:normal; font-weight:normal; image-rendering:auto; shape-rendering:auto; stroke:black; stroke-dasharray:none; stroke-dashoffset:0; stroke-linecap:square; stroke-linejoin:miter; stroke-miterlimit:10; stroke-opacity:1; stroke-width:1; text-rendering:auto;" width="860" xmlns="http://www.w3.org/2000/svg" xmlns:xlink="http://www.w3.org/1999/xlink">
  <!--Generated by the Batik Graphics2D SVG Generator-->
  <defs id="genericDefs" />
  <g>
    <g style="fill:white; font-family:serif; stroke:white;">
      <rect height="104" style="stroke:none;" width="903" x="0" y="0" />
      <text style="fill:black; font-size:14; stroke:none;" x="30" xml:space="preserve" y="10">DO</text>
      <line style="fill:none; stroke:black;" x1="34" x2="50" y1="57" y2="57" />
      <path d="M56 45 A6 6 0 0 0 50 51" style="fill:none; stroke:black;" />
      <path d="M50 63 A6 6 0 0 0 56 69" style="fill:none; stroke:black;" />
      <path d="M76 51 A6 6 0 0 0 70 45" style="fill:none; stroke:black;" />
      <path d="M70 69 A6 6 0 0 0 76 63" style="fill:none; stroke:black;" />
      <text style="fill:black; stroke:none;" x="46" xml:space="preserve" y="59">DO</text>
      <line style="fill:none; stroke:black;" x1="55" x2="71" y1="45" y2="45" />
      <line style="fill:none; stroke:black;" x1="55" x2="71" y1="69" y2="69" />
      <line style="fill:none; stroke:black;" x1="50" x2="50" y1="64" y2="50" />
      <line style="fill:none; stroke:black;" x1="76" x2="76" y1="64" y2="50" />
      <line style="fill:none; stroke:black;" x1="50" x2="50" y1="57" y2="57" />
      <polygon points=" 50 57 44 54 44 60" style="fill:black; stroke:none;" />
      <line style="fill:none; stroke:black;" x1="76" x2="108" y1="57" y2="57" />
      <line style="fill:none; stroke:black;" x1="249" x2="217" y1="57" y2="57" />
      <path d="M92 65 A8 8 0 0 0 84 57" style="fill:none; stroke:black;" />
      <path d="M92 66 A8 8 0 0 0 100 74" style="fill:none; stroke:black;" />
      <path d="M241 57 A8 8 0 0 0 233 65" style="fill:none; stroke:black;" />
      <path d="M225 74 A8 8 0 0 0 233 66" style="fill:none; stroke:black;" />
      <line style="fill:none; stroke:black;" x1="92" x2="92" y1="65" y2="67" />
      <line style="fill:none; stroke:black;" x1="233" x2="233" y1="65" y2="67" />
      <line style="fill:none; stroke:black;" x1="100" x2="226" y1="74" y2="74" />
      <path d="M114 45 A6 6 0 0 0 108 51" style="fill:none; stroke:black;" />
      <path d="M108 63 A6 6 0 0 0 114 69" style="fill:none; stroke:black;" />
      <path d="M163 51 A6 6 0 0 0 157 45" style="fill:none; stroke:black;" />
      <path d="M157 69 A6 6 0 0 0 163 63" style="fill:none; stroke:black;" />
      <text style="fill:black; stroke:none;" x="104" xml:space="preserve" y="59">LABEL</text>
      <line style="fill:none; stroke:black;" x1="113" x2="158" y1="45" y2="45" />
      <line style="fill:none; stroke:black;" x1="113" x2="158" y1="69" y2="69" />
      <line style="fill:none; stroke:black;" x1="108" x2="108" y1="64" y2="50" />
      <line style="fill:none; stroke:black;" x1="163" x2="163" y1="64" y2="50" />
      <line style="fill:none; stroke:black;" x1="108" x2="108" y1="57" y2="57" />
      <polygon points=" 108 57 102 54 102 60" style="fill:black; stroke:none;" />
      <line style="fill:none; stroke:black;" x1="163" x2="179" y1="57" y2="57" />
      <polygon points=" 179 57 173 54 173 60" style="fill:black; stroke:none;" />
      <rect height="24" style="fill:none; stroke:black;" width="38" x="179" y="45" />
      <text style="fill:black; stroke:none;" x="181" xml:space="preserve" y="65">name</text>
      <line style="fill:none; stroke:black;" x1="179" x2="179" y1="57" y2="57" />
      <polygon points=" 179 57 173 54 173 60" style="fill:black; stroke:none;" />
      <line style="fill:none; stroke:black;" x1="249" x2="281" y1="57" y2="57" />
      <line style="fill:none; stroke:black;" x1="371" x2="339" y1="57" y2="57" />
      <path d="M265 65 A8 8 0 0 0 257 57" style="fill:none; stroke:black;" />
      <path d="M265 66 A8 8 0 0 0 273 74" style="fill:none; stroke:black;" />
      <path d="M363 57 A8 8 0 0 0 355 65" style="fill:none; stroke:black;" />
      <path d="M347 74 A8 8 0 0 0 355 66" style="fill:none; stroke:black;" />
      <line style="fill:none; stroke:black;" x1="265" x2="265" y1="65" y2="67" />
      <line style="fill:none; stroke:black;" x1="355" x2="355" y1="65" y2="67" />
      <line style="fill:none; stroke:black;" x1="273" x2="348" y1="74" y2="74" />
      <rect height="24" style="fill:none; stroke:black;" width="58" x="281" y="45" />
      <text style="fill:black; stroke:none;" x="283" xml:space="preserve" y="65">repetitor</text>
      <line style="fill:none; stroke:black;" x1="281" x2="281" y1="57" y2="57" />
      <polygon points=" 281 57 275 54 275 60" style="fill:black; stroke:none;" />
      <line style="fill:none; stroke:black;" x1="371" x2="403" y1="57" y2="57" />
      <line style="fill:none; stroke:black;" x1="511" x2="479" y1="57" y2="57" />
      <path d="M387 65 A8 8 0 0 0 379 57" style="fill:none; stroke:black;" />
      <path d="M387 66 A8 8 0 0 0 395 74" style="fill:none; stroke:black;" />
      <path d="M503 57 A8 8 0 0 0 495 65" style="fill:none; stroke:black;" />
      <path d="M487 74 A8 8 0 0 0 495 66" style="fill:none; stroke:black;" />
      <line style="fill:none; stroke:black;" x1="387" x2="387" y1="65" y2="67" />
      <line style="fill:none; stroke:black;" x1="495" x2="495" y1="65" y2="67" />
      <line style="fill:none; stroke:black;" x1="395" x2="488" y1="74" y2="74" />
      <rect height="24" style="fill:none; stroke:black;" width="76" x="403" y="45" />
      <text style="fill:black; stroke:none;" x="405" xml:space="preserve" y="65">conditional</text>
      <line style="fill:none; stroke:black;" x1="403" x2="403" y1="57" y2="57" />
      <polygon points=" 403 57 397 54 397 60" style="fill:black; stroke:none;" />
      <path d="M517 45 A6 6 0 0 0 511 51" style="fill:none; stroke:black;" />
      <path d="M511 63 A6 6 0 0 0 517 69" style="fill:none; stroke:black;" />
      <path d="M527 51 A6 6 0 0 0 521 45" style="fill:none; stroke:black;" />
      <path d="M521 69 A6 6 0 0 0 527 63" style="fill:none; stroke:black;" />
      <text style="fill:black; stroke:none;" x="512" xml:space="preserve" y="59">;</text>
      <line style="fill:none; stroke:black;" x1="516" x2="522" y1="45" y2="45" />
      <line style="fill:none; stroke:black;" x1="516" x2="522" y1="69" y2="69" />
      <line style="fill:none; stroke:black;" x1="511" x2="511" y1="64" y2="50" />
      <line style="fill:none; stroke:black;" x1="527" x2="527" y1="64" y2="50" />
      <line style="fill:none; stroke:black;" x1="511" x2="511" y1="57" y2="57" />
      <polygon points=" 511 57 505 54 505 60" style="fill:black; stroke:none;" />
      <path d="M543 66 A8 8 0 0 0 551 74" style="fill:none; stroke:black;" />
      <path d="M551 57 A8 8 0 0 0 543 65" style="fill:none; stroke:black;" />
      <path d="M639 74 A8 8 0 0 0 647 66" style="fill:none; stroke:black;" />
      <path d="M647 65 A8 8 0 0 0 639 57" style="fill:none; stroke:black;" />
      <line style="fill:none; stroke:black;" x1="543" x2="543" y1="65" y2="67" />
      <line style="fill:none; stroke:black;" x1="647" x2="647" y1="65" y2="67" />
      <line style="fill:none; stroke:black;" x1="550" x2="559" y1="74" y2="74" />
      <line style="fill:none; stroke:black;" x1="631" x2="640" y1="74" y2="74" />
      <line style="fill:none; stroke:black;" x1="527" x2="663" y1="57" y2="57" />
      <rect height="24" style="fill:none; stroke:black;" width="72" x="559" y="62" />
      <text style="fill:black; stroke:none;" x="561" xml:space="preserve" y="82">instruction</text>
      <line style="fill:none; stroke:black;" x1="631" x2="631" y1="74" y2="74" />
      <polygon points=" 631 74 637 77 637 71" style="fill:black; stroke:none;" />
      <path d="M669 45 A6 6 0 0 0 663 51" style="fill:none; stroke:black;" />
      <path d="M663 63 A6 6 0 0 0 669 69" style="fill:none; stroke:black;" />
      <path d="M699 51 A6 6 0 0 0 693 45" style="fill:none; stroke:black;" />
      <path d="M693 69 A6 6 0 0 0 699 63" style="fill:none; stroke:black;" />
      <text style="fill:black; stroke:none;" x="659" xml:space="preserve" y="59">END</text>
      <line style="fill:none; stroke:black;" x1="668" x2="694" y1="45" y2="45" />
      <line style="fill:none; stroke:black;" x1="668" x2="694" y1="69" y2="69" />
      <line style="fill:none; stroke:black;" x1="663" x2="663" y1="64" y2="50" />
      <line style="fill:none; stroke:black;" x1="699" x2="699" y1="64" y2="50" />
      <line style="fill:none; stroke:black;" x1="663" x2="663" y1="57" y2="57" />
      <polygon points=" 663 57 657 54 657 60" style="fill:black; stroke:none;" />
      <line style="fill:none; stroke:black;" x1="699" x2="731" y1="57" y2="57" />
      <line style="fill:none; stroke:black;" x1="801" x2="769" y1="57" y2="57" />
      <path d="M715 65 A8 8 0 0 0 707 57" style="fill:none; stroke:black;" />
      <path d="M715 66 A8 8 0 0 0 723 74" style="fill:none; stroke:black;" />
      <path d="M793 57 A8 8 0 0 0 785 65" style="fill:none; stroke:black;" />
      <path d="M777 74 A8 8 0 0 0 785 66" style="fill:none; stroke:black;" />
      <line style="fill:none; stroke:black;" x1="715" x2="715" y1="65" y2="67" />
      <line style="fill:none; stroke:black;" x1="785" x2="785" y1="65" y2="67" />
      <line style="fill:none; stroke:black;" x1="723" x2="778" y1="74" y2="74" />
      <rect height="24" style="fill:none; stroke:black;" width="38" x="731" y="45" />
      <text style="fill:black; stroke:none;" x="733" xml:space="preserve" y="65">name</text>
      <line style="fill:none; stroke:black;" x1="731" x2="731" y1="57" y2="57" />
      <polygon points=" 731 57 725 54 725 60" style="fill:black; stroke:none;" />
      <line style="fill:none; stroke:black;" x1="769" x2="777" y1="57" y2="57" />
      <line style="fill:none; stroke:black;" x1="780" x2="780" y1="57" y2="57" />
      <polygon points=" 780 57 774 54 774 60" style="fill:black; stroke:none;" />
      <rect height="24" style="fill:none; stroke:black;" width="38" x="801" y="45" />
      <text style="fill:black; stroke:none;" x="803" xml:space="preserve" y="65">name</text>
      <line style="fill:none; stroke:black;" x1="801" x2="801" y1="57" y2="57" />
      <polygon points=" 801 57 795 54 795 60" style="fill:black; stroke:none;" />
      <line style="fill:none; stroke:black;" x1="839" x2="847" y1="57" y2="57" />
      <line style="fill:none; stroke:black;" x1="850" x2="850" y1="57" y2="57" />
      <polygon points=" 850 57 844 54 844 60" style="fill:black; stroke:none;" />
    </g>
  </g>
</svg>
