<?xml version="1.0" encoding="ISO-8859-1"?>

<!DOCTYPE svg PUBLIC '-//W3C//DTD SVG 1.0//EN' 'http://www.w3.org/TR/2001/REC-SVG-20010904/DTD/svg10.dtd'>
<svg height="113" style="color-interpolation:auto; color-rendering:auto; fill:black; fill-opacity:1; font-family:&apos;Dialog&apos;; font-size:12; font-style:normal; font-weight:normal; image-rendering:auto; shape-rendering:auto; stroke:black; stroke-dasharray:none; stroke-dashoffset:0; stroke-linecap:square; stroke-linejoin:miter; stroke-miterlimit:10; stroke-opacity:1; stroke-width:1; text-rendering:auto;" width="249" xmlns="http://www.w3.org/2000/svg" xmlns:xlink="http://www.w3.org/1999/xlink">
  <!--Generated by the Batik Graphics2D SVG Generator-->
  <defs id="genericDefs" />
  <g>
    <g style="fill:white; font-family:serif; stroke:white;">
      <rect height="133" style="stroke:none;" width="292" x="0" y="0" />
      <text style="fill:black; font-size:14; stroke:none;" x="30" xml:space="preserve" y="10">DO_conditional</text>
      <line style="fill:none; stroke:black;" x1="34" x2="50" y1="57" y2="57" />
      <line style="fill:none; stroke:black;" x1="50" x2="74" y1="57" y2="57" />
      <line style="fill:none; stroke:black;" x1="228" x2="204" y1="57" y2="57" />
      <line style="fill:none; stroke:black;" x1="74" x2="82" y1="57" y2="57" />
      <line style="fill:none; stroke:black;" x1="205" x2="196" y1="57" y2="57" />
      <path d="M66 65 A8 8 0 0 0 58 57" style="fill:none; stroke:black;" />
      <path d="M220 57 A8 8 0 0 0 212 65" style="fill:none; stroke:black;" />
      <path d="M88 45 A6 6 0 0 0 82 51" style="fill:none; stroke:black;" />
      <path d="M82 63 A6 6 0 0 0 88 69" style="fill:none; stroke:black;" />
      <path d="M137 51 A6 6 0 0 0 131 45" style="fill:none; stroke:black;" />
      <path d="M131 69 A6 6 0 0 0 137 63" style="fill:none; stroke:black;" />
      <text style="fill:black; stroke:none;" x="78" xml:space="preserve" y="59">WHILE</text>
      <line style="fill:none; stroke:black;" x1="87" x2="132" y1="45" y2="45" />
      <line style="fill:none; stroke:black;" x1="87" x2="132" y1="69" y2="69" />
      <line style="fill:none; stroke:black;" x1="82" x2="82" y1="64" y2="50" />
      <line style="fill:none; stroke:black;" x1="137" x2="137" y1="64" y2="50" />
      <line style="fill:none; stroke:black;" x1="82" x2="82" y1="57" y2="57" />
      <polygon points=" 82 57 76 54 76 60" style="fill:black; stroke:none;" />
      <line style="fill:none; stroke:black;" x1="137" x2="153" y1="57" y2="57" />
      <polygon points=" 153 57 147 54 147 60" style="fill:black; stroke:none;" />
      <rect height="24" style="fill:none; stroke:black;" width="43" x="153" y="45" />
      <text style="fill:black; stroke:none;" x="155" xml:space="preserve" y="65">exprw</text>
      <line style="fill:none; stroke:black;" x1="153" x2="153" y1="57" y2="57" />
      <polygon points=" 153 57 147 54 147 60" style="fill:black; stroke:none;" />
      <line style="fill:none; stroke:black;" x1="74" x2="85" y1="91" y2="91" />
      <line style="fill:none; stroke:black;" x1="205" x2="193" y1="91" y2="91" />
      <path d="M66 83 A8 8 0 0 0 74 91" style="fill:none; stroke:black;" />
      <line style="fill:none; stroke:black;" x1="66" x2="66" y1="65" y2="84" />
      <path d="M204 91 A8 8 0 0 0 212 83" style="fill:none; stroke:black;" />
      <line style="fill:none; stroke:black;" x1="212" x2="212" y1="65" y2="84" />
      <path d="M91 79 A6 6 0 0 0 85 85" style="fill:none; stroke:black;" />
      <path d="M85 97 A6 6 0 0 0 91 103" style="fill:none; stroke:black;" />
      <path d="M137 85 A6 6 0 0 0 131 79" style="fill:none; stroke:black;" />
      <path d="M131 103 A6 6 0 0 0 137 97" style="fill:none; stroke:black;" />
      <text style="fill:black; stroke:none;" x="81" xml:space="preserve" y="93">UNTIL</text>
      <line style="fill:none; stroke:black;" x1="90" x2="132" y1="79" y2="79" />
      <line style="fill:none; stroke:black;" x1="90" x2="132" y1="103" y2="103" />
      <line style="fill:none; stroke:black;" x1="85" x2="85" y1="98" y2="84" />
      <line style="fill:none; stroke:black;" x1="137" x2="137" y1="98" y2="84" />
      <line style="fill:none; stroke:black;" x1="85" x2="85" y1="91" y2="91" />
      <polygon points=" 85 91 79 88 79 94" style="fill:black; stroke:none;" />
      <line style="fill:none; stroke:black;" x1="137" x2="153" y1="91" y2="91" />
      <polygon points=" 153 91 147 88 147 94" style="fill:black; stroke:none;" />
      <rect height="24" style="fill:none; stroke:black;" width="40" x="153" y="79" />
      <text style="fill:black; stroke:none;" x="155" xml:space="preserve" y="99">expru</text>
      <line style="fill:none; stroke:black;" x1="153" x2="153" y1="91" y2="91" />
      <polygon points=" 153 91 147 88 147 94" style="fill:black; stroke:none;" />
      <line style="fill:none; stroke:black;" x1="228" x2="236" y1="57" y2="57" />
      <line style="fill:none; stroke:black;" x1="239" x2="239" y1="57" y2="57" />
      <polygon points=" 239 57 233 54 233 60" style="fill:black; stroke:none;" />
    </g>
  </g>
</svg>
