<?xml version="1.0" encoding="ISO-8859-1"?>

<!DOCTYPE svg PUBLIC '-//W3C//DTD SVG 1.0//EN' 'http://www.w3.org/TR/2001/REC-SVG-20010904/DTD/svg10.dtd'>
<svg height="186" style="color-interpolation:auto; color-rendering:auto; fill:black; fill-opacity:1; font-family:&apos;Dialog&apos;; font-size:12; font-style:normal; font-weight:normal; image-rendering:auto; shape-rendering:auto; stroke:black; stroke-dasharray:none; stroke-dashoffset:0; stroke-linecap:square; stroke-linejoin:miter; stroke-miterlimit:10; stroke-opacity:1; stroke-width:1; text-rendering:auto;" width="751" xmlns="http://www.w3.org/2000/svg" xmlns:xlink="http://www.w3.org/1999/xlink">
  <!--Generated by the Batik Graphics2D SVG Generator-->
  <defs id="genericDefs" />
  <g>
    <g style="fill:white; font-family:serif; stroke:white;">
      <rect height="206" style="stroke:none;" width="794" x="0" y="0" />
      <text style="fill:black; font-size:14; stroke:none;" x="30" xml:space="preserve" y="10">DO_repetitor</text>
      <line style="fill:none; stroke:black;" x1="34" x2="50" y1="57" y2="57" />
      <line style="fill:none; stroke:black;" x1="50" x2="74" y1="57" y2="57" />
      <line style="fill:none; stroke:black;" x1="730" x2="706" y1="57" y2="57" />
      <line style="fill:none; stroke:black;" x1="74" x2="82" y1="57" y2="57" />
      <line style="fill:none; stroke:black;" x1="707" x2="698" y1="57" y2="57" />
      <path d="M66 65 A8 8 0 0 0 58 57" style="fill:none; stroke:black;" />
      <path d="M722 57 A8 8 0 0 0 714 65" style="fill:none; stroke:black;" />
      <rect height="24" style="fill:none; stroke:black;" width="55" x="82" y="45" />
      <text style="fill:black; stroke:none;" x="84" xml:space="preserve" y="65">control1</text>
      <line style="fill:none; stroke:black;" x1="82" x2="82" y1="57" y2="57" />
      <polygon points=" 82 57 76 54 76 60" style="fill:black; stroke:none;" />
      <line style="fill:none; stroke:black;" x1="137" x2="153" y1="57" y2="57" />
      <polygon points=" 153 57 147 54 147 60" style="fill:black; stroke:none;" />
      <path d="M159 45 A6 6 0 0 0 153 51" style="fill:none; stroke:black;" />
      <path d="M153 63 A6 6 0 0 0 159 69" style="fill:none; stroke:black;" />
      <path d="M169 51 A6 6 0 0 0 163 45" style="fill:none; stroke:black;" />
      <path d="M163 69 A6 6 0 0 0 169 63" style="fill:none; stroke:black;" />
      <text style="fill:black; stroke:none;" x="151" xml:space="preserve" y="59">=</text>
      <line style="fill:none; stroke:black;" x1="158" x2="164" y1="45" y2="45" />
      <line style="fill:none; stroke:black;" x1="158" x2="164" y1="69" y2="69" />
      <line style="fill:none; stroke:black;" x1="153" x2="153" y1="64" y2="50" />
      <line style="fill:none; stroke:black;" x1="169" x2="169" y1="64" y2="50" />
      <line style="fill:none; stroke:black;" x1="153" x2="153" y1="57" y2="57" />
      <polygon points=" 153 57 147 54 147 60" style="fill:black; stroke:none;" />
      <line style="fill:none; stroke:black;" x1="169" x2="185" y1="57" y2="57" />
      <polygon points=" 185 57 179 54 179 60" style="fill:black; stroke:none;" />
      <rect height="24" style="fill:none; stroke:black;" width="36" x="185" y="45" />
      <text style="fill:black; stroke:none;" x="187" xml:space="preserve" y="65">expri</text>
      <line style="fill:none; stroke:black;" x1="185" x2="185" y1="57" y2="57" />
      <polygon points=" 185 57 179 54 179 60" style="fill:black; stroke:none;" />
      <line style="fill:none; stroke:black;" x1="221" x2="253" y1="57" y2="57" />
      <line style="fill:none; stroke:black;" x1="361" x2="329" y1="57" y2="57" />
      <path d="M237 65 A8 8 0 0 0 229 57" style="fill:none; stroke:black;" />
      <path d="M237 66 A8 8 0 0 0 245 74" style="fill:none; stroke:black;" />
      <path d="M353 57 A8 8 0 0 0 345 65" style="fill:none; stroke:black;" />
      <path d="M337 74 A8 8 0 0 0 345 66" style="fill:none; stroke:black;" />
      <line style="fill:none; stroke:black;" x1="237" x2="237" y1="65" y2="67" />
      <line style="fill:none; stroke:black;" x1="345" x2="345" y1="65" y2="67" />
      <line style="fill:none; stroke:black;" x1="245" x2="338" y1="74" y2="74" />
      <path d="M259 45 A6 6 0 0 0 253 51" style="fill:none; stroke:black;" />
      <path d="M253 63 A6 6 0 0 0 259 69" style="fill:none; stroke:black;" />
      <path d="M277 51 A6 6 0 0 0 271 45" style="fill:none; stroke:black;" />
      <path d="M271 69 A6 6 0 0 0 277 63" style="fill:none; stroke:black;" />
      <text style="fill:black; stroke:none;" x="249" xml:space="preserve" y="59">TO</text>
      <line style="fill:none; stroke:black;" x1="258" x2="272" y1="45" y2="45" />
      <line style="fill:none; stroke:black;" x1="258" x2="272" y1="69" y2="69" />
      <line style="fill:none; stroke:black;" x1="253" x2="253" y1="64" y2="50" />
      <line style="fill:none; stroke:black;" x1="277" x2="277" y1="64" y2="50" />
      <line style="fill:none; stroke:black;" x1="253" x2="253" y1="57" y2="57" />
      <polygon points=" 253 57 247 54 247 60" style="fill:black; stroke:none;" />
      <line style="fill:none; stroke:black;" x1="277" x2="293" y1="57" y2="57" />
      <polygon points=" 293 57 287 54 287 60" style="fill:black; stroke:none;" />
      <rect height="24" style="fill:none; stroke:black;" width="36" x="293" y="45" />
      <text style="fill:black; stroke:none;" x="295" xml:space="preserve" y="65">exprt</text>
      <line style="fill:none; stroke:black;" x1="293" x2="293" y1="57" y2="57" />
      <polygon points=" 293 57 287 54 287 60" style="fill:black; stroke:none;" />
      <line style="fill:none; stroke:black;" x1="361" x2="393" y1="57" y2="57" />
      <line style="fill:none; stroke:black;" x1="505" x2="473" y1="57" y2="57" />
      <path d="M377 65 A8 8 0 0 0 369 57" style="fill:none; stroke:black;" />
      <path d="M377 66 A8 8 0 0 0 385 74" style="fill:none; stroke:black;" />
      <path d="M497 57 A8 8 0 0 0 489 65" style="fill:none; stroke:black;" />
      <path d="M481 74 A8 8 0 0 0 489 66" style="fill:none; stroke:black;" />
      <line style="fill:none; stroke:black;" x1="377" x2="377" y1="65" y2="67" />
      <line style="fill:none; stroke:black;" x1="489" x2="489" y1="65" y2="67" />
      <line style="fill:none; stroke:black;" x1="385" x2="482" y1="74" y2="74" />
      <path d="M399 45 A6 6 0 0 0 393 51" style="fill:none; stroke:black;" />
      <path d="M393 63 A6 6 0 0 0 399 69" style="fill:none; stroke:black;" />
      <path d="M418 51 A6 6 0 0 0 412 45" style="fill:none; stroke:black;" />
      <path d="M412 69 A6 6 0 0 0 418 63" style="fill:none; stroke:black;" />
      <text style="fill:black; stroke:none;" x="389" xml:space="preserve" y="59">BY</text>
      <line style="fill:none; stroke:black;" x1="398" x2="413" y1="45" y2="45" />
      <line style="fill:none; stroke:black;" x1="398" x2="413" y1="69" y2="69" />
      <line style="fill:none; stroke:black;" x1="393" x2="393" y1="64" y2="50" />
      <line style="fill:none; stroke:black;" x1="418" x2="418" y1="64" y2="50" />
      <line style="fill:none; stroke:black;" x1="393" x2="393" y1="57" y2="57" />
      <polygon points=" 393 57 387 54 387 60" style="fill:black; stroke:none;" />
      <line style="fill:none; stroke:black;" x1="418" x2="434" y1="57" y2="57" />
      <polygon points=" 434 57 428 54 428 60" style="fill:black; stroke:none;" />
      <rect height="24" style="fill:none; stroke:black;" width="39" x="434" y="45" />
      <text style="fill:black; stroke:none;" x="436" xml:space="preserve" y="65">exprb</text>
      <line style="fill:none; stroke:black;" x1="434" x2="434" y1="57" y2="57" />
      <polygon points=" 434 57 428 54 428 60" style="fill:black; stroke:none;" />
      <line style="fill:none; stroke:black;" x1="505" x2="537" y1="57" y2="57" />
      <line style="fill:none; stroke:black;" x1="659" x2="627" y1="57" y2="57" />
      <path d="M521 65 A8 8 0 0 0 513 57" style="fill:none; stroke:black;" />
      <path d="M521 66 A8 8 0 0 0 529 74" style="fill:none; stroke:black;" />
      <path d="M651 57 A8 8 0 0 0 643 65" style="fill:none; stroke:black;" />
      <path d="M635 74 A8 8 0 0 0 643 66" style="fill:none; stroke:black;" />
      <line style="fill:none; stroke:black;" x1="521" x2="521" y1="65" y2="67" />
      <line style="fill:none; stroke:black;" x1="643" x2="643" y1="65" y2="67" />
      <line style="fill:none; stroke:black;" x1="529" x2="636" y1="74" y2="74" />
      <path d="M543 45 A6 6 0 0 0 537 51" style="fill:none; stroke:black;" />
      <path d="M537 63 A6 6 0 0 0 543 69" style="fill:none; stroke:black;" />
      <path d="M572 51 A6 6 0 0 0 566 45" style="fill:none; stroke:black;" />
      <path d="M566 69 A6 6 0 0 0 572 63" style="fill:none; stroke:black;" />
      <text style="fill:black; stroke:none;" x="533" xml:space="preserve" y="59">FOR</text>
      <line style="fill:none; stroke:black;" x1="542" x2="567" y1="45" y2="45" />
      <line style="fill:none; stroke:black;" x1="542" x2="567" y1="69" y2="69" />
      <line style="fill:none; stroke:black;" x1="537" x2="537" y1="64" y2="50" />
      <line style="fill:none; stroke:black;" x1="572" x2="572" y1="64" y2="50" />
      <line style="fill:none; stroke:black;" x1="537" x2="537" y1="57" y2="57" />
      <polygon points=" 537 57 531 54 531 60" style="fill:black; stroke:none;" />
      <line style="fill:none; stroke:black;" x1="572" x2="588" y1="57" y2="57" />
      <polygon points=" 588 57 582 54 582 60" style="fill:black; stroke:none;" />
      <rect height="24" style="fill:none; stroke:black;" width="39" x="588" y="45" />
      <text style="fill:black; stroke:none;" x="590" xml:space="preserve" y="65">exprf</text>
      <line style="fill:none; stroke:black;" x1="588" x2="588" y1="57" y2="57" />
      <polygon points=" 588 57 582 54 582 60" style="fill:black; stroke:none;" />
      <rect height="24" style="fill:none; stroke:black;" width="39" x="659" y="45" />
      <text style="fill:black; stroke:none;" x="661" xml:space="preserve" y="65">exprf</text>
      <line style="fill:none; stroke:black;" x1="659" x2="659" y1="57" y2="57" />
      <polygon points=" 659 57 653 54 653 60" style="fill:black; stroke:none;" />
      <line style="fill:none; stroke:black;" x1="74" x2="289" y1="96" y2="96" />
      <line style="fill:none; stroke:black;" x1="707" x2="491" y1="96" y2="96" />
      <path d="M66 88 A8 8 0 0 0 74 96" style="fill:none; stroke:black;" />
      <line style="fill:none; stroke:black;" x1="66" x2="66" y1="65" y2="89" />
      <path d="M706 96 A8 8 0 0 0 714 88" style="fill:none; stroke:black;" />
      <line style="fill:none; stroke:black;" x1="714" x2="714" y1="65" y2="89" />
      <rect height="24" style="fill:none; stroke:black;" width="56" x="289" y="84" />
      <text style="fill:black; stroke:none;" x="291" xml:space="preserve" y="104">control2</text>
      <line style="fill:none; stroke:black;" x1="289" x2="289" y1="96" y2="96" />
      <polygon points=" 289 96 283 93 283 99" style="fill:black; stroke:none;" />
      <line style="fill:none; stroke:black;" x1="345" x2="361" y1="96" y2="96" />
      <polygon points=" 361 96 355 93 355 99" style="fill:black; stroke:none;" />
      <path d="M367 84 A6 6 0 0 0 361 90" style="fill:none; stroke:black;" />
      <path d="M361 102 A6 6 0 0 0 367 108" style="fill:none; stroke:black;" />
      <path d="M408 90 A6 6 0 0 0 402 84" style="fill:none; stroke:black;" />
      <path d="M402 108 A6 6 0 0 0 408 102" style="fill:none; stroke:black;" />
      <text style="fill:black; stroke:none;" x="357" xml:space="preserve" y="98">OVER</text>
      <line style="fill:none; stroke:black;" x1="366" x2="403" y1="84" y2="84" />
      <line style="fill:none; stroke:black;" x1="366" x2="403" y1="108" y2="108" />
      <line style="fill:none; stroke:black;" x1="361" x2="361" y1="103" y2="89" />
      <line style="fill:none; stroke:black;" x1="408" x2="408" y1="103" y2="89" />
      <line style="fill:none; stroke:black;" x1="361" x2="361" y1="96" y2="96" />
      <polygon points=" 361 96 355 93 355 99" style="fill:black; stroke:none;" />
      <line style="fill:none; stroke:black;" x1="408" x2="424" y1="96" y2="96" />
      <polygon points=" 424 96 418 93 418 99" style="fill:black; stroke:none;" />
      <rect height="24" style="fill:none; stroke:black;" width="67" x="424" y="84" />
      <text style="fill:black; stroke:none;" x="426" xml:space="preserve" y="104">collection</text>
      <line style="fill:none; stroke:black;" x1="424" x2="424" y1="96" y2="96" />
      <polygon points=" 424 96 418 93 418 99" style="fill:black; stroke:none;" />
      <line style="fill:none; stroke:black;" x1="74" x2="351" y1="130" y2="130" />
      <line style="fill:none; stroke:black;" x1="707" x2="428" y1="130" y2="130" />
      <path d="M66 122 A8 8 0 0 0 74 130" style="fill:none; stroke:black;" />
      <line style="fill:none; stroke:black;" x1="66" x2="66" y1="65" y2="123" />
      <path d="M706 130 A8 8 0 0 0 714 122" style="fill:none; stroke:black;" />
      <line style="fill:none; stroke:black;" x1="714" x2="714" y1="65" y2="123" />
      <path d="M357 118 A6 6 0 0 0 351 124" style="fill:none; stroke:black;" />
      <path d="M351 136 A6 6 0 0 0 357 142" style="fill:none; stroke:black;" />
      <path d="M428 124 A6 6 0 0 0 422 118" style="fill:none; stroke:black;" />
      <path d="M422 142 A6 6 0 0 0 428 136" style="fill:none; stroke:black;" />
      <text style="fill:black; stroke:none;" x="347.5" xml:space="preserve" y="132">FOREVER</text>
      <line style="fill:none; stroke:black;" x1="356" x2="423" y1="118" y2="118" />
      <line style="fill:none; stroke:black;" x1="356" x2="423" y1="142" y2="142" />
      <line style="fill:none; stroke:black;" x1="351" x2="351" y1="137" y2="123" />
      <line style="fill:none; stroke:black;" x1="428" x2="428" y1="137" y2="123" />
      <line style="fill:none; stroke:black;" x1="351" x2="351" y1="130" y2="130" />
      <polygon points=" 351 130 345 127 345 133" style="fill:black; stroke:none;" />
      <line style="fill:none; stroke:black;" x1="74" x2="371" y1="164" y2="164" />
      <line style="fill:none; stroke:black;" x1="707" x2="408" y1="164" y2="164" />
      <path d="M66 156 A8 8 0 0 0 74 164" style="fill:none; stroke:black;" />
      <line style="fill:none; stroke:black;" x1="66" x2="66" y1="65" y2="157" />
      <path d="M706 164 A8 8 0 0 0 714 156" style="fill:none; stroke:black;" />
      <line style="fill:none; stroke:black;" x1="714" x2="714" y1="65" y2="157" />
      <rect height="24" style="fill:none; stroke:black;" width="37" x="371" y="152" />
      <text style="fill:black; stroke:none;" x="373.5" xml:space="preserve" y="172">exprr</text>
      <line style="fill:none; stroke:black;" x1="371" x2="371" y1="164" y2="164" />
      <polygon points=" 371 164 365 161 365 167" style="fill:black; stroke:none;" />
      <line style="fill:none; stroke:black;" x1="730" x2="738" y1="57" y2="57" />
      <line style="fill:none; stroke:black;" x1="741" x2="741" y1="57" y2="57" />
      <polygon points=" 741 57 735 54 735 60" style="fill:black; stroke:none;" />
    </g>
  </g>
</svg>
